<?xml version="1.0" encoding="utf-8"?>
<!-- Generator: Adobe Illustrator 16.0.0, SVG Export Plug-In . SVG Version: 6.00 Build 0)  -->
<!DOCTYPE svg PUBLIC "-//W3C//DTD SVG 1.1//EN" "http://www.w3.org/Graphics/SVG/1.1/DTD/svg11.dtd">
<svg version="1.1" id="Layer_1" xmlns="http://www.w3.org/2000/svg" xmlns:xlink="http://www.w3.org/1999/xlink" x="0px" y="0px"
	 width="100px" height="30px" viewBox="0 0 100 30" enable-background="new 0 0 100 30" xml:space="preserve">
<g>
	<path fill-rule="evenodd" clip-rule="evenodd" fill="#FFFFFF" d="M99.406,11.168c-0.714,1.584-0.771,3.32-1.129,4.985
		c-0.414,1.919-1.066,2.513-3.064,2.543c-1.122,0.016-2.249,0.057-3.365-0.029c-1.168-0.09-1.775-0.696-1.512-1.979
		c0.434-2.103,0.813-4.216,1.218-6.325c0.197-1.027,0.801-1.766,1.835-1.847c2.017-0.159,4.065-0.487,6.018,0.406
		C99.406,9.67,99.406,10.419,99.406,11.168z M96.384,11.006c0.043-0.505-0.151-0.835-0.66-0.899
		c-0.651-0.082-1.228,0.038-1.387,0.807c-0.34,1.633-0.646,3.273-1.003,4.903c-0.133,0.603-0.034,1.032,0.617,1.15
		c0.582,0.105,1.183,0.041,1.339-0.653C95.687,14.552,96.022,12.776,96.384,11.006z"/>
	<path fill-rule="evenodd" clip-rule="evenodd" fill="#FFFFFF" d="M1.133,17.626c0.328-1.121,1.033-1.525,2.211-1.347
		c0.822,0.124,1.679,0.004,2.52,0.025c0.881,0.022,1.114-0.535,1.159-1.252c0.056-0.879-0.592-0.784-1.151-0.796
		c-0.047-0.001-0.094-0.003-0.14,0c-3.964,0.273-3.71-0.793-2.702-4.495C3.283,8.837,4.148,8.469,5.007,8.44
		C7.051,8.371,9.1,8.417,11.127,8.417c0.155,1.495-0.477,1.999-1.858,1.823c-0.828-0.105-1.68-0.012-2.521-0.018
		c-0.707-0.004-1.165,0.25-1.206,1.035c-0.045,0.889,0.589,0.788,1.141,0.813c3.782,0.171,3.821,0.22,3.085,3.883
		c-0.442,2.198-1.079,2.737-3.31,2.763c-1.775,0.02-3.551,0.022-5.326,0.033C1.133,18.375,1.133,18,1.133,17.626z"/>
	<path fill-rule="evenodd" clip-rule="evenodd" fill="#FFFFFF" d="M42.788,24.85c0.682-1.42,1.808-1.986,2.976-2.46
		c2.807-1.138,5.779-1.463,8.764-1.669c2.842-0.195,5.688-0.316,8.551-0.127c0.02-0.595-0.454-0.606-0.722-0.795
		c-3.752-2.632-6.056-6.174-6.628-10.743c-0.294-2.349,0.157-4.568,1.768-6.417c0.511-0.586,1.076-1.139,2.063-1.373
		c-2.022,4.327-0.896,8.196,1.382,11.845c2.265,3.632,5.338,6.222,10.125,6.836c-2.888,0.763-5.492,1.254-7.971,2.168
		c-3.236,1.193-6.584,2.25-8.435,5.558c-0.216,0.385-0.5,0.286-0.837,0.193C50.184,26.862,46.542,25.873,42.788,24.85z
		 M52.133,26.532c0.787,0.262,1.574,0.935,2.238-0.228c0.184-0.32,0.333-0.565-0.134-0.72
		C53.278,25.267,52.509,25.405,52.133,26.532z M44.242,24.456c1.509,0.563,1.509,0.563,2.202-0.589
		C45.591,23.605,44.716,23.263,44.242,24.456z M56.733,24.144c-0.946-0.584-1.673-0.2-2.46,0.394
		C55.681,24.943,55.681,24.943,56.733,24.144z M46.276,22.875c1.42,0.521,1.42,0.521,2.196-0.299
		C47.721,22.227,47.035,22.389,46.276,22.875z"/>
	<path fill-rule="evenodd" clip-rule="evenodd" fill="#FFFFFF" d="M18.662,8.394c1.589,0,3.18-0.047,4.767,0.013
		c1.601,0.061,2.09,0.697,1.802,2.255c-0.441,2.384-0.917,4.762-1.385,7.143c-0.333,1.693-1.673,0.806-2.505,0.83
		c-1.067,0.033-0.323-0.854-0.262-1.247c0.314-1.979,0.745-3.94,1.1-5.914c0.102-0.566,0.341-1.26-0.633-1.383
		c-0.831-0.105-1.237,0.121-1.385,1.065c-0.353,2.256-0.827,4.495-1.323,6.726c-0.357,1.609-1.683,0.702-2.523,0.75
		c-0.863,0.05-0.322-0.798-0.26-1.171c0.341-2.023,0.79-4.026,1.156-6.046c0.082-0.446,0.696-1.148-0.308-1.307
		c-0.789-0.124-1.539-0.152-1.717,1.021c-0.314,2.074-0.774,4.125-1.172,6.186c-0.232,1.204-1.708,1.921-2.792,1.366
		c-0.417-0.214-0.259-0.562-0.204-0.853c0.556-2.886,1.138-5.766,1.69-8.652c0.118-0.615,0.412-0.825,1.046-0.809
		c1.634,0.045,3.271,0.016,4.906,0.016C18.662,8.387,18.662,8.39,18.662,8.394z"/>
	<path fill-rule="evenodd" clip-rule="evenodd" fill="#FFFFFF" d="M83.289,13.447c1.651,0.845,0.816,2.021,0.68,3.049
		c-0.151,1.135-0.756,1.997-1.924,2.078c-1.901,0.133-3.817,0.092-5.727,0.121c-0.596,0.009-0.525-0.399-0.453-0.773
		c0.566-2.924,1.143-5.848,1.711-8.773c0.101-0.517,0.313-0.796,0.923-0.78c1.678,0.045,3.359-0.022,5.037,0.038
		c1.409,0.05,1.831,0.578,1.596,1.973C84.93,11.573,85.133,13.032,83.289,13.447z M81.245,15.709
		c0.158-1.03-0.174-1.394-0.949-1.409c-1.479-0.029-0.908,1.24-1.223,1.939c-0.244,0.539,0.033,0.744,0.58,0.788
		C80.817,17.12,81.302,16.567,81.245,15.709z M80.514,12.591c1.616,0.227,1.533-0.891,1.672-1.691
		c0.144-0.823-0.555-0.829-1.112-0.817c-1.503,0.033-0.937,1.345-1.175,2.087C79.691,12.813,80.407,12.562,80.514,12.591z"/>
	<path fill-rule="evenodd" clip-rule="evenodd" fill="#FFFFFF" d="M51.13,18.697c-1.312,0.281-1.626-0.215-1.193-1.396
		c0.175-0.476,0.311-1.008,0.278-1.502c-0.033-0.489,0.749-1.267-0.33-1.458c-0.81-0.143-1.583-0.128-1.636,1.083
		c-0.034,0.781-0.383,1.544-0.452,2.327c-0.071,0.809-0.453,0.963-1.182,0.967c-1.888,0.009-1.878,0.044-1.492-1.882
		c0.403-2.01,0.777-4.025,1.181-6.035c0.316-1.574,1.069-2.298,2.625-2.392c1.209-0.073,2.429-0.064,3.639-0.003
		c1.379,0.07,1.846,0.634,1.608,2.004c-0.439,2.524-0.974,5.031-1.43,7.553C52.548,19.069,51.714,18.61,51.13,18.697z
		 M51.142,11.144c0.108-0.792-0.245-1.058-0.859-1.055c-1.405,0.005-1.216,1.186-1.376,2.009c-0.158,0.805,0.576,0.484,0.957,0.54
		C51.193,12.835,50.996,11.78,51.142,11.144z"/>
	<path fill-rule="evenodd" clip-rule="evenodd" fill="#FFFFFF" d="M35.155,18.563c0.615-3.112,1.245-6.219,1.828-9.334
		c0.113-0.603,0.289-0.882,0.963-0.861c1.635,0.05,3.274-0.02,4.91,0.037c1.532,0.053,2.003,0.681,1.691,2.18
		c-0.238,1.146-0.106,2.543-1.788,2.807c0.848,0.937,0.999,4.262,0.146,5.063c-0.64,0.602-1.625,0.316-2.399,0.184
		c-0.741-0.125-0.249-0.831-0.195-1.273c0.067-0.553,0.237-1.094,0.342-1.643c0.118-0.615,0.25-1.254-0.654-1.389
		c-0.732-0.109-1.302-0.005-1.325,0.935c-0.009,0.368-0.145,0.73-0.212,1.098C37.987,18.985,37.947,19.014,35.155,18.563z
		 M40.203,12.639c1.146,0.096,1.253-0.786,1.368-1.63c0.125-0.923-0.531-0.945-1.159-0.922c-1.321,0.05-0.836,1.207-1.078,1.881
		C39.076,12.688,39.676,12.649,40.203,12.639z"/>
	<path fill-rule="evenodd" clip-rule="evenodd" fill="#FFFFFF" d="M31.591,8.383c3.586-0.001,3.671,0.1,2.991,3.648
		c-0.36,1.879-0.803,3.745-1.075,5.637c-0.27,1.87-1.666,0.989-2.495,0.98c-1.219-0.015-0.246-0.97-0.305-1.474
		c-0.063-0.528,0.211-1.09,0.289-1.642c0.06-0.434,0.58-1.076-0.326-1.193c-0.715-0.092-1.539-0.247-1.669,0.896
		c-0.09,0.787-0.27,1.563-0.425,2.341c-0.129,0.647-0.232,1.181-1.188,1.156c-1.88-0.049-1.894,0.028-1.543-1.852
		c0.352-1.88,0.739-3.753,1.096-5.632c0.419-2.21,1.152-2.839,3.388-2.866C30.75,8.378,31.17,8.383,31.591,8.383z M30.368,12.576
		c1.672,0.356,1.342-0.869,1.544-1.56c0.195-0.663-0.287-0.925-0.883-0.932c-1.438-0.017-1.231,1.187-1.392,2.02
		C29.478,12.929,30.234,12.521,30.368,12.576z"/>
	<path fill-rule="evenodd" clip-rule="evenodd" fill="#FFFFFF" d="M90.152,8.453c-0.612,3.18-1.182,6.3-1.826,9.407
		c-0.337,1.625-1.695,0.775-2.521,0.762c-0.882-0.017-0.293-0.859-0.211-1.312c0.436-2.388,1.039-4.752,1.341-7.156
		c0.187-1.49,0.739-2.068,2.196-1.787C89.442,8.427,89.768,8.422,90.152,8.453z"/>
	<path fill-rule="evenodd" clip-rule="evenodd" fill="#FBC129" d="M67.541,16.127c0.473-4.196-0.576-5.792-4.477-6.966
		c1.332-0.967,3.879-0.486,4.773,0.901C69.212,12.193,69.121,15.201,67.541,16.127z"/>
	<path fill-rule="evenodd" clip-rule="evenodd" fill="#E5382D" d="M61.966,2.327c1.134-0.925,2.11-0.677,3.013,0.051
		c1.501,1.209,2.104,2.903,2.394,4.735c0.068,0.435,0.009,0.856-0.566,0.931c-0.617,0.081-0.645-0.4-0.739-0.795
		C65.525,4.988,64.646,3.007,61.966,2.327z"/>
	<path fill-rule="evenodd" clip-rule="evenodd" fill="#2F82C4" d="M72.508,16.442c0.49-3.211-0.04-4.219-3-5.865
		c-0.159-0.089-0.363-0.116-0.381-0.346c-0.015-0.219,0.133-0.321,0.313-0.396c0.949-0.392,3.177,0.983,3.925,2.423
		C74.259,13.984,73.982,15.528,72.508,16.442z"/>
	<path fill-rule="evenodd" clip-rule="evenodd" fill="#69AC4B" d="M68.551,3.867c0.144,0.067,0.422,0.144,0.636,0.305
		c1.32,1.001,2.36,2.225,2.863,3.833c0.164,0.524,0.109,1.066-0.485,1.286c-0.827,0.307-0.592-0.519-0.729-0.831
		c-0.638-1.436-1.613-2.586-2.799-3.581c-0.211-0.177-0.481-0.322-0.306-0.669C67.874,3.926,68.126,3.842,68.551,3.867z"/>
	<path fill-rule="evenodd" clip-rule="evenodd" fill="#FFFFFF" d="M34.458,5.955c-1.169,1.03-2.039,2.24-3.753,1.667
		C31.294,5.819,32.632,5.609,34.458,5.955z"/>
	<path fill-rule="evenodd" clip-rule="evenodd" fill="#FFFFFF" d="M87.661,7.648c0.652-1.782,1.917-2.085,3.616-1.695
		C90.341,7.111,89.404,8.084,87.661,7.648z"/>
	<path fill-rule="evenodd" clip-rule="evenodd" fill="#FFFFFF" d="M98.354,5.965c-1.156,1.025-2.01,2.239-3.671,1.635
		C95.62,5.743,95.718,5.696,98.354,5.965z"/>
	<path fill-rule="evenodd" clip-rule="evenodd" fill="#FFFFFF" d="M52.133,26.532c0.376-1.127,1.146-1.266,2.104-0.947
		c0.467,0.154,0.317,0.399,0.134,0.72C53.707,27.467,52.92,26.794,52.133,26.532z"/>
	<path fill-rule="evenodd" clip-rule="evenodd" fill="#FFFFFF" d="M44.242,24.456c0.474-1.193,1.349-0.851,2.202-0.589
		C45.751,25.019,45.751,25.019,44.242,24.456z"/>
	<path fill-rule="evenodd" clip-rule="evenodd" fill="#FFFFFF" d="M56.733,24.144c-1.053,0.8-1.053,0.8-2.46,0.394
		C55.061,23.943,55.787,23.56,56.733,24.144z"/>
	<path fill-rule="evenodd" clip-rule="evenodd" fill="#FFFFFF" d="M46.276,22.875c0.759-0.486,1.445-0.648,2.196-0.299
		C47.696,23.396,47.696,23.396,46.276,22.875z"/>
</g>
</svg>
