<?xml version="1.0" encoding="utf-8"?>
<!-- Generator: Adobe Illustrator 16.0.0, SVG Export Plug-In . SVG Version: 6.00 Build 0)  -->
<!DOCTYPE svg PUBLIC "-//W3C//DTD SVG 1.1//EN" "http://www.w3.org/Graphics/SVG/1.1/DTD/svg11.dtd">
<svg version="1.1" id="Layer_1" xmlns="http://www.w3.org/2000/svg" xmlns:xlink="http://www.w3.org/1999/xlink" x="0px" y="0px"
	 width="100px" height="100px" viewBox="0 0 100 100" enable-background="new 0 0 100 100" xml:space="preserve">
<path fill-rule="evenodd" clip-rule="evenodd" fill="#FFFFFF" d="M99.964,28.016c-33.364,0-66.569,0-99.899,0
	c0-5.713,0-11.368,0-17.169c33.227,0,66.52,0,99.899,0C99.964,16.542,99.964,22.281,99.964,28.016z"/>
<path fill-rule="evenodd" clip-rule="evenodd" fill="#FFFFFF" d="M-0.018,58.511c0-5.751,0-11.367,0-17.113
	c33.338,0,66.634,0,100.035,0c0,5.663,0,11.32,0,17.113C66.742,58.511,33.448,58.511-0.018,58.511z"/>
<path fill-rule="evenodd" clip-rule="evenodd" fill="#F0B52A" d="M-0.013,90.153c0-5.749,0-11.363,0-17.111
	c33.339,0,66.629,0,100.028,0c0,5.672,0,11.327,0,17.111C66.737,90.153,33.444,90.153-0.013,90.153z"/>
</svg>
