<?xml version="1.0" encoding="utf-8"?>
<!-- Generator: Adobe Illustrator 16.0.0, SVG Export Plug-In . SVG Version: 6.00 Build 0)  -->
<!DOCTYPE svg PUBLIC "-//W3C//DTD SVG 1.1//EN" "http://www.w3.org/Graphics/SVG/1.1/DTD/svg11.dtd">
<svg version="1.1" id="Layer_1" xmlns="http://www.w3.org/2000/svg" xmlns:xlink="http://www.w3.org/1999/xlink" x="0px" y="0px"
	 width="100px" height="100px" viewBox="0 0 100 100" enable-background="new 0 0 100 100" xml:space="preserve">
<g>
	<path fill-rule="evenodd" clip-rule="evenodd" fill="#FFFFFF" d="M56.784,99.059c-5.9,0-11.701,0-17.539,0
		c-0.027-0.158-0.067-0.299-0.074-0.443c-0.012-0.253-0.004-0.508-0.004-0.762c0-14.427,0.001-28.854-0.001-43.28
		c0-0.323,0.043-0.653-0.069-1.016c-0.29-0.011-0.563-0.028-0.835-0.028c-3.397-0.003-6.795,0-10.193-0.004
		c-0.298-0.001-0.607,0.054-0.884-0.082C27.09,52.729,27.1,37.55,27.198,36.901c0.253-0.092,0.533-0.048,0.804-0.048
		c3.423-0.003,6.846-0.001,10.269-0.003c0.273,0,0.546-0.017,0.864-0.029c0.012-0.315,0.031-0.587,0.031-0.859
		c0.002-4.285-0.002-8.57,0.003-12.855c0.003-2.5,0.32-4.956,1.107-7.335c1.908-5.765,5.725-9.755,11.308-12.078
		C53.389,2.942,55.27,2.45,57.2,2.137c1.831-0.296,3.669-0.433,5.523-0.445c2.259-0.015,4.514,0.06,6.765,0.194
		c1.568,0.093,3.129,0.276,4.693,0.422c0.097,0.009,0.191,0.039,0.309,0.063c0.02,0.111,0.056,0.207,0.054,0.303
		c-0.13,5.042-0.264,10.083-0.395,15.093c-0.291,0.241-0.581,0.15-0.848,0.148c-2.385-0.016-4.768-0.044-7.15-0.064
		c-0.913-0.007-1.826-0.02-2.738,0.002c-1.014,0.025-2.02,0.108-3.007,0.378c-1.821,0.497-2.914,1.678-3.299,3.5
		c-0.155,0.74-0.207,1.503-0.286,2.258c-0.032,0.302-0.021,0.608-0.021,0.913c-0.001,3.702-0.001,7.403,0,11.105
		c0,0.25,0.017,0.498,0.027,0.766c0.294,0.121,0.574,0.073,0.845,0.074c3.245,0.004,6.49,0.002,9.736,0.002
		c2.129,0,4.26-0.001,6.39,0.002c0.246,0,0.493,0.021,0.772,0.034c0.012,0.167,0.033,0.289,0.028,0.41
		c-0.231,5.367-0.493,10.733-0.757,16.13c-0.18,0.039-0.319,0.087-0.46,0.096c-0.228,0.016-0.456,0.006-0.685,0.006
		c-4.969,0-9.939-0.001-14.909,0.002c-0.299,0-0.604-0.04-0.932,0.072c-0.019,0.149-0.05,0.295-0.055,0.44
		c-0.009,0.253-0.003,0.508-0.003,0.761c0,14.401,0,28.804-0.002,43.205C56.798,98.333,56.79,98.659,56.784,99.059z"/>
</g>
</svg>
