<?xml version="1.0" encoding="utf-8"?>
<!-- Generator: Adobe Illustrator 16.0.0, SVG Export Plug-In . SVG Version: 6.00 Build 0)  -->
<!DOCTYPE svg PUBLIC "-//W3C//DTD SVG 1.1//EN" "http://www.w3.org/Graphics/SVG/1.1/DTD/svg11.dtd">
<svg version="1.1" id="Layer_1" xmlns="http://www.w3.org/2000/svg" xmlns:xlink="http://www.w3.org/1999/xlink" x="0px" y="0px"
	 width="100px" height="100px" viewBox="0 0 100 100" enable-background="new 0 0 100 100" xml:space="preserve">
<g>
	<g>
		<path fill="#F2B62F" d="M78.878,55.066c-0.617-11.202-1.327-24.665-1.203-34.68H77.32c-2.747,9.42-6.08,19.427-10.138,30.506
			L53.01,89.854h-7.87L32.156,51.61c-3.812-11.318-7.029-21.688-9.297-31.224h-0.239c-0.239,10.015-0.833,23.478-1.543,35.513
			l-2.152,34.449H9.041l5.594-80.323h13.231l13.702,38.846c3.333,9.891,6.08,18.702,8.108,27.049h0.355
			c2.021-8.101,4.884-16.92,8.464-27.049l14.288-38.846h13.239l4.999,80.323H80.884L78.878,55.066z"/>
		<path fill="#F2B62F" d="M99.432,98.248H73.416L71.379,62.45L58.542,97.755H39.477L28.414,65.166l-2.068,33.082H0.569L7.266,2.125
			h26.193l15.562,44.116c0.339,1.01,0.664,1.998,0.987,2.962c0.332-0.964,0.679-1.952,1.042-2.962L67.274,2.125h26.17L99.432,98.248
			z"/>
	</g>
</g>
</svg>
