<?xml version="1.0" encoding="utf-8"?>
<!-- Generator: Adobe Illustrator 16.0.0, SVG Export Plug-In . SVG Version: 6.00 Build 0)  -->
<!DOCTYPE svg PUBLIC "-//W3C//DTD SVG 1.1//EN" "http://www.w3.org/Graphics/SVG/1.1/DTD/svg11.dtd">
<svg version="1.1" id="Layer_1" xmlns="http://www.w3.org/2000/svg" xmlns:xlink="http://www.w3.org/1999/xlink" x="0px" y="0px"
	 width="100px" height="100px" viewBox="0 0 100 100" enable-background="new 0 0 100 100" xml:space="preserve">
<g>
	<g>
		<path fill="#F2B62F" d="M78.878,55.066c-0.616-11.202-1.327-24.666-1.203-34.681H77.32c-2.747,9.42-6.08,19.427-10.139,30.507
			L53.01,89.854h-7.87L32.156,51.609c-3.813-11.317-7.029-21.688-9.297-31.224H22.62c-0.239,10.015-0.833,23.479-1.543,35.513
			l-2.152,34.449H9.041l5.594-80.323h13.231l13.702,38.846c3.333,9.891,6.08,18.702,8.108,27.049h0.355
			c2.021-8.102,4.884-16.92,8.464-27.049l14.288-38.846h13.238l5,80.323H80.884L78.878,55.066z"/>
		<path fill="#F2B62F" d="M99.43,98.25H73.42l-2.04-35.8l-12.84,35.3H39.48L28.41,65.17l-2.06,33.08H0.57l6.7-96.13h26.19
			l15.56,44.12c0.34,1.01,0.67,2,0.99,2.96c0.33-0.96,0.681-1.95,1.04-2.96L67.27,2.12H93.44L99.43,98.25z"/>
	</g>
</g>
</svg>
