<?xml version="1.0" encoding="utf-8"?>
<!-- Generator: Adobe Illustrator 16.0.0, SVG Export Plug-In . SVG Version: 6.00 Build 0)  -->
<!DOCTYPE svg PUBLIC "-//W3C//DTD SVG 1.1//EN" "http://www.w3.org/Graphics/SVG/1.1/DTD/svg11.dtd">
<svg version="1.1" id="Layer_1" xmlns="http://www.w3.org/2000/svg" xmlns:xlink="http://www.w3.org/1999/xlink" x="0px" y="0px"
	 width="100px" height="100px" viewBox="0 0 100 100" enable-background="new 0 0 100 100" xml:space="preserve">
<g>
	<path fill-rule="evenodd" clip-rule="evenodd" fill="#FFFFFF" d="M75.223,44.564c-0.087,0.958-0.178,1.919-0.259,2.88
		c-0.016,0.175,0.092,0.444,0.008,0.517c-0.835,0.727-1.598,1.678-2.578,2.064c-1.451,0.572-1.03,1.8-1.454,2.725
		c0.094,0.091,0.188,0.181,0.281,0.271c0.263-0.272,0.753-0.548,0.75-0.819c-0.014-0.986,0.2-1.688,1.314-1.821
		c0.122-0.017,0.24-0.174,0.333-0.29c0.533-0.657,1.059-1.322,1.698-2.127c0.32,0.482,0.472,0.711,0.619,0.934
		c-1.471,0.967-1.509,2.564-1.722,3.948c-0.236,1.525-0.65,2.803-1.943,3.705c-0.146,0.104-0.273,0.262-0.367,0.417
		c-0.203,0.345-0.382,0.705-0.749,0.972c-0.161,0.41-0.321,0.822-0.481,1.232c-0.121-0.054-0.241-0.105-0.361-0.16
		c0.41-0.767-0.044-1.857,1.204-2.347c0.629-0.246,0.756-0.98,0.58-1.737c-0.313-1.333-1.27-1.83-2.573-1.297
		c-0.394,0.159-0.865,0.159-1.305,0.172c-0.775,0.018-1.566-0.103-2.327,0.008c-0.79,0.114-1.554,0.431-2.52,0.715
		c-0.147-0.274-0.43-0.785-0.692-1.304c-0.248-0.492-0.51-0.981-0.702-1.495c-0.128-0.341-0.154-0.719-0.208-1.083
		c-0.017-0.107,0.083-0.265,0.036-0.325c-1.448-1.861,0.873-2.008,1.361-2.98c0.207-0.411,0.518-0.767,0.76-1.162
		c0.194-0.312,0.314-0.682,0.545-0.961c0.556-0.668,0.681-3.483,0.139-4.166c-0.064-0.08-0.188-0.114-0.281-0.168
		c-0.049,0.062-0.113,0.108-0.119,0.16c-0.118,0.94,0.349,1.918,0.238,2.721c-0.15,1.098-0.779,2.382-1.622,3.077
		c-1.463,1.208-1.896,3.029-3.11,4.341c-0.128,0.138,0.013,0.526,0.028,0.801l-0.027-0.028c0.105,0.282,0.178,0.583,0.322,0.844
		c0.343,0.606,0.292,0.992-0.415,1.331c-0.837,0.398-0.92,0.807-0.479,1.581c0.813-0.813,1.599-1.598,2.384-2.382
		c-0.035-0.165-0.07-0.327-0.104-0.488c0.34,0.191,0.867,0.313,0.972,0.595c0.129,0.352,0.026,1.131-0.177,1.209
		c-1.501,0.585-0.373,1.007,0.292,1.764c-0.818,0.05-1.399,0.084-2.036,0.124c-0.531,0.313-1.235,0.707-1.919,1.134
		c-0.409,0.254-1.063,0.504-1.13,0.849c-0.185,0.934-0.867,1.102-1.512,1.531c-1.013,0.679-1.796,1.688-2.741,2.48
		c-0.409,0.341-1.011,0.438-1.468,0.733c-1.016,0.653-2.084,1.263-2.958,2.078c-0.744,0.692-1.977,1.55-3.111,1.674
		c1.471-1.61,2.949-3.205,4.402-4.825c1.228-1.369,2.42-2.772,3.642-4.148c0.587-0.661,1.173-1.332,1.83-1.92
		c0.194-0.176,0.622-0.11,0.946-0.122c0.498-0.016,0.997-0.004,1.496-0.004c0.035-0.12,0.07-0.243,0.104-0.363
		c-0.573-0.25-1.145-0.5-1.584-0.692c0.312-1.047,0.472-2.04,0.908-2.896c0.356-0.702,1.04-1.24,1.455-1.951
		c-0.558,0.923-2.202,0.98-1.965,2.538c0.01,0.074,0.014,0.169-0.022,0.225c-0.865,1.326-1.632,2.732-2.635,3.944
		c-0.968,1.167-2.409,1.982-3.231,3.225c-1.094,1.652-2.678,2.854-3.748,4.441c-1.044,1.55-2.461,2.557-3.825,3.7
		c-0.457,0.385-0.712,1.007-1.107,1.591c-1.35-1.353-2.274,0.327-3.45,0.613c-0.46,0.112-0.927,0.212-1.397,0.26
		c-0.772,0.08-1.568-0.012-1.949,0.955c-0.147,0.375-0.55,0.703-0.916,0.924c-0.771,0.462-0.971,1.105-0.979,1.964
		c-0.005,0.486-0.254,1.041-0.57,1.417c-0.115,0.138-0.772-0.1-1.133-0.27c-0.742-0.351-1.504-0.701-2.151-1.191
		c-0.38-0.291-0.555-0.851-0.865-1.363c1.229-0.276,2.665,0.44,2.872-1.522c0.622,0.189,1.184,0.329,1.725,0.527
		c0.653,0.238,1.074,0.149,1.257-0.613c0.178-0.747,0.44-1.473,0.707-2.342c0.329,0.272,0.495,0.41,0.803,0.668
		c0-0.355,0.042-0.658-0.007-0.674c-0.31-0.096-0.854-0.273-0.927-0.163c-0.404,0.613-0.714,1.292-1.015,1.967
		c-0.101,0.227-0.081,0.506-0.125,0.825c-0.539-0.189-1.014-0.373-1.499-0.521c-0.672-0.201-1.195-0.182-1.515,0.649
		c-0.12,0.31-0.714,0.54-1.126,0.616c-0.812,0.15-1.841-0.246-1.878,1.228c-0.009,0.332-0.771,0.887-1.216,0.917
		c-1.031,0.07-2.23,1.181-3.128-0.322c-0.055-0.093-0.501-0.027-0.72,0.066c-1.453,0.63-2.913,0.552-4.401,0.149
		c-0.285-0.075-0.62-0.039-0.918,0.017c-1.115,0.208-2.224,0.448-3.583,0.729c0.395-1.296,0.681-2.232,1.001-3.283
		c-0.116-0.05-0.455-0.194-0.679-0.29c0.256-0.829,0.48-1.556,0.814-2.639c0.489,0.854,0.85,1.486,1.211,2.119
		c0.425,0.427,0.989,0.631,1.646-0.084c0.333-0.358,1.132-0.29,1.772-0.162c1.044-0.65,2.088-1.304,3.261-2.034
		c-0.459-0.26-0.789-0.448-1.121-0.636c0.021-0.051,0.042-0.101,0.063-0.151c0.43,0.161,0.86,0.321,1.201,0.447
		c0.427-0.385,0.823-0.743,1.331-1.201c-0.635-0.509-1.258-1.012-1.97-1.582c0.876-0.335,0.962-1.722,2.22-1.786
		c0.058-0.004,0.12-0.076,0.166-0.126c0.522-0.585,0.52-0.585,1.011-0.069c0.077,0.081,0.176,0.144,0.271,0.205
		c0.062,0.038,0.135,0.061,0.291,0.126c0.353-0.342,0.729-0.708,1.249-1.213c-1.835-0.339-3.355-0.687-4.563,0.989
		c-0.641,0.887-1.413,0.883-2.458,0.206c0.76-0.451,1.412-0.837,2.343-1.388c-0.724-0.044-1.188-0.072-1.653-0.101
		c0.354-3.495,3.224-3.413,5.313-2.046c0.331,0.217,0.819,0.188,1.48,0.326c-1.171-1.389-2.811-1.249-4.132-1.84
		c0.836-1.478,1.425,0.365,2.271,0.034c-0.392-0.514-0.731-0.959-0.939-1.232c0.581-0.417,1.145-0.882,1.766-1.246
		c0.334-0.194,0.771-0.314,1.157-0.305c1.142,0.026,2.292,0.259,3.42,0.175c0.924-0.066,1.823-0.471,2.671-0.709
		c-0.558,1.166-1.092,2.23-1.568,3.321c-0.095,0.218,0.032,0.535,0.056,0.805c0.276-0.092,0.615-0.113,0.815-0.292
		c0.448-0.4,0.827-0.879,1.134-1.216c0.363,0.729,0.719,1.444,1.074,2.159c0.162,0.006,0.324,0.01,0.485,0.014
		c0.334-0.856,0.667-1.714,1.001-2.572c1.164-0.932,2.438-1.95,3.795-3.034c-0.336-0.271-0.574-0.464-1.033-0.834
		c0.644-0.533,1.326-0.938,1.775-1.52c0.356-0.461,0.427-1.141,0.658-1.822c-0.134-0.023-0.368-0.132-0.437-0.065
		c-0.586,0.558-1.57,0.39-2.061,1.177c-0.118,0.189-0.635,0.132-0.994,0.191c0.262-0.51,0.548-0.816,0.556-1.129
		c0.033-1.281,0.012-2.566-0.062-3.847c-0.016-0.292-0.319-0.565-0.491-0.85c-0.175,0.275-0.465,0.536-0.505,0.83
		c-0.145,1.086-0.207,2.183-0.543,3.241c0.168,0.39,0.337,0.777,0.447,1.029c-0.802,0.395-1.455,0.915-2.168,1.021
		c-1.613,0.238-2.649,1.079-3.559,2.389c-0.558,0.803-1.523,1.18-2.669,1.157c-1.272-0.025-2.658-0.375-3.81,0.561
		c0.94-1.041,2.075-1.392,3.497-1.423c1.329-0.028,2.46-0.837,3.569-2.1c-0.641,0.23-0.993,0.357-1.479,0.533
		c0-1.254,0.02-2.373-0.019-3.491c-0.006-0.194-0.255-0.382-0.393-0.569c-0.143,0.144-0.4,0.28-0.412,0.437
		c-0.069,0.955-0.086,1.912-0.108,2.871c-0.002,0.08,0.087,0.164,0.142,0.26c0.185-0.197,0.332-0.357,0.551-0.594
		c0.027,1.307-0.994,2.392-2.057,2.386c-0.674-0.004-1.379-0.044-2.014,0.13c-0.774,0.216-1.544,0.594-1.391,1.66
		c-0.66,0.467-1.322,0.933-1.98,1.404c-0.843,0.604-1.682,1.213-2.729,1.97c0.033-0.54,0.049-0.809,0.065-1.075
		c-0.065-0.016-0.131-0.03-0.196-0.046c-0.133,0.438-0.216,0.899-0.414,1.303c-0.154,0.313-0.452,0.556-0.686,0.827
		c-0.194-0.355-0.439-0.696-0.567-1.075c-0.123-0.363-0.125-0.771-0.158-0.999c-0.441-0.119-0.926-0.14-0.966-0.283
		c-0.125-0.449-0.264-1.046-0.067-1.402c0.397-0.723,1.011-1.325,1.625-2.088c-0.508,0.242-0.904,0.432-1.514,0.724
		c0.174-0.56,0.268-0.858,0.381-1.223c-0.332-0.098-0.606-0.18-0.983-0.292c0.182-0.295,0.344-0.555,0.697-1.128
		c-1.02,0.391-1.74,0.667-2.459,0.944c0.01-0.077,0.02-0.155,0.029-0.233c-0.546-0.07-1.093-0.134-1.638-0.212
		c-1.294-0.188-2.594-0.344-3.876-0.595c-0.659-0.128-1.282-0.524-1.843,0.205c-0.083,0.107-0.375,0.162-0.512,0.102
		c-0.884-0.381-1.385-0.285-1.765,0.775c-0.289,0.804-2.135,0.485-2.549-0.381c-0.287-0.604-0.543-1.22-0.789-1.774
		c0.356-0.136,0.768-0.206,1.061-0.432c0.246-0.191,0.353-0.562,0.586-0.965c0.497,0.235,1.206,0.571,1.651,0.783
		c1.08-0.604,1.936-1.082,2.63-1.469c0.521,0.353,0.956,0.648,1.381,0.939c0.325-0.845,0.556-1.45,0.788-2.053
		c0.102,0.041,0.204,0.081,0.305,0.121c-0.076,0.621-0.152,1.242-0.22,1.8c0.784,0.25,0.296-1.358,1.162-0.319
		c-0.023-0.506-0.044-0.957-0.065-1.407c0.122-0.025,0.244-0.05,0.365-0.076c0.135,0.183,0.271,0.366,0.589,0.798
		c0.642-0.659,1.258-1.294,1.891-1.945c0.085,0.421,0.083,0.815,0.249,1.12c0.217,0.401,0.567,0.731,1.075,0.979
		c-0.114-0.297-0.229-0.593-0.38-0.984c1.186-0.443,2.179-0.804,3.522-0.222c1.117,0.483,2.529,0.291,3.812,0.365
		c0.11,0.008,0.358-0.295,0.334-0.339c-0.525-0.949,0.478-1.531,0.531-2.324c0.028-0.4-0.059-0.809-0.095-1.214
		c-0.288,0.218-0.658,0.379-0.85,0.661c-0.928,1.364-2.622,1.67-4.176,0.751c-0.59-0.35-1.238-0.601-1.824-0.879
		c-0.023-0.14-0.089-0.419-0.107-0.701c-0.009-0.144,0.018-0.357,0.112-0.432c0.779-0.603,1.57-1.192,2.375-1.76
		c0.364-0.259,0.768-0.463,1.154-0.689c1.069-0.627,1.912-1.658,3.271-1.777c0.222-0.02,0.418-0.33,0.711-0.579
		c-0.867,0-1.511,0-2.079,0c-0.231-0.486-0.427-0.902-0.667-1.407c-0.207,0.292-0.332,0.468-0.482,0.682
		c-0.141-0.305-0.273-0.586-0.387-0.833c-0.351,0.645-0.689,1.268-1.088,1.999c-0.62-0.495-1.097-0.877-1.605-1.284
		c2.088-1.088,2.088-1.088,2.404-2.427c-0.191,0.227-0.344,0.519-0.584,0.667c-0.392,0.243-0.835,0.406-1.268,0.576
		c-0.418,0.165-0.849,0.296-1.282,0.445c-0.118-0.723-0.239-1.464-0.359-2.204c-0.063,0.007-0.127,0.013-0.19,0.019
		c-0.035,0.54-0.071,1.08-0.129,1.964c-0.299-0.484-0.412-0.666-0.568-0.917c-0.09,0.302-0.17,0.569-0.25,0.836
		c-0.109,0.003-0.218,0.006-0.328,0.009c-0.038-0.716-0.078-1.43-0.126-2.315c-1.083,0.768-0.076,1.824-0.472,2.58
		c-0.352-0.221-0.69-0.433-1.032-0.647c0.243-0.455,0.495-0.927,0.746-1.4c-0.135-0.103-0.271-0.207-0.406-0.311
		c-0.164,0.37-0.328,0.738-0.562,1.266c-0.273-0.528-0.367-0.708-0.401-0.775c-0.35,0.366-0.656,0.836-1.089,1.061
		c-0.167,0.086-0.623-0.384-1.06-0.675c-0.046,0.165-0.195,0.451-0.197,0.739c-0.006,0.963-0.388,1.279-1.259,0.98
		c-0.689-0.237-2.76,0.34-3.277,0.914c-0.741,0.823-1.801,0.847-2.597-0.004c0.236-0.039,0.424-0.07,0.759-0.124
		c-1.627-1.648-3.688-1.436-5.705-1.653c1.671,0.019,2.649-0.928,3.372-2.292c0.074,0.071,0.149,0.143,0.223,0.214
		c-0.179,0.553-0.358,1.105-0.538,1.658c0.11,0.052,0.22,0.105,0.33,0.159c0.248-0.285,0.496-0.568,0.788-0.902
		c0.378,0.162,0.751,0.318,1.187,0.504c-0.031,0.311-0.063,0.628-0.133,1.32c0.854-0.375,1.482-0.653,2.103-0.928
		c0.036-0.007,0.078-0.021,0.119-0.041c0.664-0.398,1.327-0.796,2.145-1.288c-0.298,0-0.457,0-0.617,0
		c0.666-1.055,1.949-0.468,2.868-1.04c-0.156-0.285-0.292-0.531-0.445-0.812c-0.849,0.317-1.618,0.379-2.02-0.454
		c0.402-0.133,0.795-0.208,1.132-0.387c1.038-0.548,1.306,0.461,1.846,0.924c0.101-0.062,0.202-0.123,0.303-0.184
		c-0.159-0.325-0.32-0.649-0.517-1.05c0.582,0,1.316,0.198,1.826-0.054c0.553-0.273,0.899-0.967,1.58-1.762
		c-0.638,0.131-0.957,0.197-1.404,0.288c-0.113-1.455,1.155-2.347,1.633-3.572c-0.08,0.871-0.16,1.743-0.239,2.615
		c0.142,0.018,0.283,0.036,0.424,0.053c0.138-1.082,0.263-2.166,0.423-3.244c0.029-0.19,0.201-0.361,0.307-0.54
		c0.167,0.114,0.347,0.211,0.497,0.343c0.773,0.683,0.869,1.513,0.52,2.442c-0.27,0.721-0.522,1.449-0.828,2.299
		c0.854-0.412,0.854-0.412,1.533-3.267c1.297,1.7,1.165,2.01-1.909,4.353c0.408,0.237,0.791,0.46,1.302,0.758
		c-0.059-0.338-0.099-0.563-0.137-0.781c1.166,0.305,1.192,0.376,0.53,1.691c0.246-0.021,0.431-0.037,0.606-0.052
		c0.094,0.299,0.195,0.624,0.35,1.117c0.499-0.749,0.843-1.265,1.185-1.782c-0.83-0.627-1.288-2.175-0.825-3.206
		c0.502-1.121,0.232-2.111-0.203-3.154c-0.102-0.243,0.048-0.721,0.25-0.929c0.308-0.315,0.762-0.489,1.213-0.758
		c0.773,0.488-1.248,1.61,0.38,2.108c-0.281,0.069-0.563,0.138-0.638,0.156c0.171,0.989,0.343,1.981,0.515,2.973
		c-0.106,0.019-0.213,0.037-0.32,0.056c0.365,0.488,1.492-0.635,1.609,0.769c0.607-1.04,1.214-2.081,1.785-3.059
		c0.166,0.475,0.371,1.06,0.62,1.772c0.677-0.524,0.169-1.848,1.398-1.286l-0.021-0.025c-0.752,1.079,0.516,1.716,0.486,2.761
		c0.617-0.462,1.109-0.831,1.575-1.18c-0.951-0.78-0.927-1.609,0.159-2.066c-0.042,0.352-0.083,0.71-0.126,1.067
		c0.137,0.059,0.272,0.118,0.408,0.177c0.094-0.281,0.188-0.562,0.326-0.973c0.978,1.904,0.47,3.22-1.27,3.979
		c0.388,0.16,0.741,0.306,1.171,0.483c-1.795,2.679-2.46,0.101-3.42-0.745c0.126,0.711,0.266,1.296,0.328,1.892
		c0.084,0.816,0.465,1.214,1.315,1.159c0.378-0.025,0.764,0.049,1.388,0.097c-0.457,0.61-0.756,1.01-1.056,1.412
		c0.042,0.06,0.085,0.121,0.128,0.181c0.449-0.287,0.897-0.573,1.407-0.899c0.777,1.699-0.641,2.33-1.297,3.426
		c0.479-0.251,0.959-0.502,1.431-0.75c0.952,0.979,1,2.151,0.961,3.491c-0.033,1.135,0.535,2.285,0.916,3.724
		c0-2.345,0-4.399,0-6.612c0.863,0.708,0.449,2.035,1.607,2.436c-0.861-4.426-0.028-6.847,2.598-7.227
		c-0.62,1.535,1.219,2.867,0.118,4.624c-0.059-0.37-0.088-0.552-0.116-0.737c-0.095-0.011-0.189-0.023-0.284-0.034
		c-0.078,0.459-0.155,0.919-0.232,1.378c0.117,0.048,0.233,0.096,0.35,0.144c0.667-0.631,1.333-1.263,2.015-1.907
		c0.147,0.103,0.316,0.219,0.359,0.249c0.199-1.023,0.4-2.059,0.673-3.463c0.954,0.765,1.666,1.335,2.375,1.905
		c0.147,0.096,0.299,0.192,0.45,0.291c1.23,1.385,1.603,3.114,1.883,4.86c0.215,1.344,0.317,2.705,0.481,4.152
		c1.473-0.341,1.547,0.688,1.63,1.506c0.135,1.333,0.097,2.685,0.169,4.026c0.015,0.286,0.148,0.589,0.295,0.845
		c0.245,0.431,0.762,0.82,0.778,1.242c0.047,1.286,0.635,1.714,1.829,1.104c-0.491-0.575-0.987-1.153-1.483-1.731
		c0.094-0.07,0.188-0.143,0.282-0.213c0.824,0.755,1.697,1.476,1.795,2.745c-2.492-0.555-4.063,0.763-5.263,2.779
		c-0.314-0.345-0.546-0.541-0.702-0.785c-0.144-0.224-0.206-0.501-0.32-0.799c-0.811,0.919-0.738,0.497,0.321,2.234
		c0.709,1.163,0.523,1.716-0.797,2.116c-0.541,0.164-1.051,0.433-1.522,0.631c-0.483-0.098-0.968-0.198-1.453-0.297
		c-0.14,0.095-0.28,0.188-0.419,0.283c1.646,0.476,1.161,0.98,0.426,1.586c-0.893,0.733-1.224,1.764-1.266,2.895l-0.071-0.006
		c0.201,0.694-0.046,1.057-0.773,1.173c-0.214,0.034-0.391,0.309-0.584,0.475c0.075,0.101,0.15,0.202,0.226,0.302
		c0.434-0.239,1.08-0.371,1.268-0.74c0.952-1.86,3.006-3.001,3.397-5.224c0.033-0.185,0.351-0.332,0.556-0.471
		c0.831-0.564,1.671-1.119,2.549-1.705c-0.406-0.384-0.589-0.556-0.805-0.758c0.212-0.266,0.397-0.494,0.578-0.725
		c0.88-1.123,1.44-2.643,3.346-2.425c0.405,0.046,0.863-0.372,1.297-0.576c0.548,0.358,1.098,0.719,1.94,1.27
		c0.016-3.296,1.48-5.042,4.429-5.704c-0.173-0.253-0.349-0.323-0.513-0.417c-1.521-0.865-1.97-2.128-1.34-3.75
		c0.286-0.74-0.082-1.179-0.646-1.485c-0.744-0.402-1.529-0.731-2.298-1.089c-0.075,0.088-0.15,0.178-0.225,0.268
		c0.255,0.22,0.477,0.513,0.771,0.646c0.438,0.195,0.959,0.212,1.383,0.426c0.801,0.402,0.804,1.518,0.046,2.154l0.024,0.028
		c-0.842-0.705-1.688-1.41-2.654-2.219c-0.054-0.216-0.173-0.692-0.292-1.169l0.028,0.05c0.149-0.35,0.298-0.701,0.446-1.051
		c0.393-0.643-0.977-1.081-0.224-1.994c-0.551-0.696-1.309-1.459-1.832-2.359c-0.828-1.423-1.394-2.887-1.409-4.665
		c-0.014-1.654,0.665-3.451-0.438-5.039c-0.08-0.115-0.002-0.34,0.005-0.514c0.035-0.725,0.07-1.451,0.118-2.433
		c0.619-0.605,2.278-0.866,3.101-0.289c-0.039-0.558-0.245-1.179-0.068-1.661c0.167-0.458,0.733-0.768,1.304-1.316
		c0,0.562,0,0.83,0,1.1c0.072,0.027,0.145,0.054,0.217,0.08c0.208-0.335,0.415-0.669,0.622-1.005
		c0.104,0.013,0.205,0.026,0.308,0.039c-0.038,0.292-0.07,0.584-0.117,0.875c-0.057,0.356-0.064,0.636,0.402,0.324
		c-0.252,0.413-0.501,0.823-0.787,1.292c-0.527-0.417-1.003-0.795-1.479-1.172c-0.098,0.034-0.195,0.067-0.292,0.101
		c0.721,1.021,1.658,1.982,1.083,3.368c0.489-0.857,0.832-1.666,1.148-2.486c0.138-0.356,0.217-0.735,0.322-1.105
		c0.628-0.802,0.994-0.337,1.338,0.226c-0.27,0.432-0.517,0.827-0.917,1.465c0.523-0.32,0.81-0.498,1.095-0.673
		c-0.439,0.677-0.895,1.34-1.309,2.03c-0.433,0.723-0.827,1.471-1.239,2.208c-1.123-0.399-2.247-0.798-3.471-1.233
		c0.17,1.57,1.972,0.414,2.281,1.652c-0.667,0-1.304,0-2.259,0c1.81,0.393,1.81,0.393,1.865,0.819
		c0.685,0.397,1.275,0.555,1.53,0.935c0.309,0.46,0.334,1.111,0.488,1.702c-0.787-0.22-1.534-0.429-2.524-0.707
		c0.611,0.836,1.106,1.302,1.328,1.873c0.24,0.622,0.226,1.341,0.319,2.008c0.344-0.061,0.653-0.116,0.962-0.172
		c0.061-0.058,0.121-0.114,0.183-0.171c-0.287-0.1-0.572-0.2-1.202-0.421c0.637-0.807,1.003-1.271,1.37-1.736
		c0.122,0.118,0.245,0.236,0.368,0.355c-0.262-0.08-0.521-0.159-1.04-0.316c0.954-0.367,1.722-0.543,2.362-0.931
		c1.429-0.869,0.67-2.597,1.337-3.789c0.003-0.005-0.312-0.187-0.495-0.297c-0.791,1.438-0.101,3.604-2.637,4.1
		c0.247-0.914,0.482-1.785,0.717-2.654c-0.271,0.19-0.618,0.43-1.134,0.788c-0.336-0.457-0.677-0.9-0.968-1.373
		c-0.015-0.024,0.387-0.306,0.593-0.47c0.511-0.372,1.131-0.656,1.506-1.132c0.38-0.48,0.542-1.142,0.747-1.743
		c0.144-0.421,0.202-0.874,0.298-1.311c0.242,0.466,0.551,0.913,0.704,1.407c0.091,0.292-0.065,0.661-0.121,1.079
		c2.613,0.514,3.155,2.531,3.448,4.77c0.072,0.565,0.638,1.114,0.596,1.64c-0.112,1.402-0.186,2.895-0.731,4.152
		c-0.679,1.564-0.641,3.064-0.438,4.631c0.216,1.666,0.242,1.662-1.444,1.832c1.083,0.515,1.253,1.954,2.773,1.73
		c0.121-0.174,0.37-0.533,0.719-1.035c-0.459-0.183-0.835-0.333-1.412-0.561c2.103-0.684,2.182-2.255,2.134-3.974
		c-0.018-0.619,0.385-1.249,0.571-1.879c0.091-0.302,0.123-0.619,0.232-1.207c-0.457,0.374-0.677,0.555-0.982,0.804
		c-0.101-0.697-0.181-1.271-0.262-1.844c-0.089,0.005-0.178,0.01-0.265,0.016c-0.101,0.91-0.201,1.819-0.299,2.711
		c-0.082-0.048-0.267-0.157-0.451-0.265c-0.099,0.044-0.197,0.09-0.298,0.134c0.354,0.877,0.708,1.754,1.106,2.741
		c-0.054,0.175-0.188,0.621-0.323,1.067c-1.539-0.508-1.915-2.421-1.268-4.108c0.746-1.95,1.841-3.968,0.787-6.218
		c-0.171-0.365-0.072-0.893,0.006-1.328c0.203-1.148,0.143-2.01-0.999-2.842c-0.64-0.464-0.659-1.777-0.958-2.708
		c0.184,0.323,0.369,0.646,0.553,0.968c0.144-0.059,0.288-0.117,0.431-0.175c-0.239-0.88-0.481-1.76-0.723-2.64
		c-0.152,0.032-0.304,0.064-0.457,0.096c0.067,0.4,0.135,0.799,0.203,1.2c-0.092-0.556-0.262-1.118-0.222-1.663
		c0.01-0.143,0.699-0.378,1.035-0.322c0.704,0.117,1.146,0.479,1.122,1.373c-0.017,0.662,0.352,1.334,0.549,2.001
		c0.148-0.033,0.296-0.067,0.446-0.101c-0.208-0.976-0.416-1.951-0.703-3.285c0.701,0.615,1.201,1.055,1.707,1.5
		c0.109,1.607,0.212,3.21,0.314,4.811c0.217-0.012,0.434-0.025,0.649-0.038c-0.028-0.479-0.047-0.961-0.089-1.439
		c-0.019-0.215-0.071-0.431-0.129-0.639c-0.253-0.904-0.514-1.806-0.773-2.708c0.916,1.074,1.832,2.146,2.566,3.007
		c0.036-0.585,0.505-0.891,1.154-0.569c0.383-1.02,0.771-2.055,1.155-3.093c0.051-0.138,0.083-0.287,0.101-0.433
		c0.1-0.857,0.969-1.655,1.796-1.54c0.243,0.034,0.526,0.354,0.646,0.611c0.184,0.398,0.243,0.854,0.371,1.346
		c0.679-0.062,1.367-0.125,2.354-0.215c0.554,0.533,1.343,1.292,2.135,2.046c-0.144,0.785-0.29,1.578-0.437,2.37
		c0.646,0.842,1.291,1.683,1.936,2.524l0.021-0.036c-0.231-0.063-0.462-0.125-0.734-0.199c0,0.432,0.006,0.769-0.001,1.105
		c-0.018,0.886-0.003,1.594,1.157,1.957c0.538,0.168,0.964,1.206,1.13,1.923c0.181,0.782-0.063,1.653,0.008,2.475
		c0.036,0.42,0.253,0.931,0.562,1.204c1.153,1.017,1.172,1.329,0.241,2.605c-0.329,0.447-0.389,1.095-0.571,1.649L75.223,44.564z
		 M51.585,39.744c-0.087,0.068-0.174,0.136-0.26,0.204c0.098,0.742,0.193,1.483,0.271,2.08c0.671,0.492,1.274,0.933,1.918,1.406
		c0.268-0.682,0.085-1.804,1.372-1.8c-0.491-0.159-0.979-0.321-1.508-0.494c0.087-0.483,0.167-0.931,0.246-1.373
		c-0.96-0.274-0.77,0.427-0.67,1.04C52.424,40.395,52.004,40.069,51.585,39.744z M57.945,49.475
		c-2.277,0.046-2.277,0.046-3.07-2.114c-0.516-1.409-1.003-1.911-2.371-2.314c1.892,1.017,2.103,3.062,2.894,4.566
		c-0.146,0.485-0.387,0.892-0.327,1.246c0.036,0.198,0.727,0.519,0.857,0.422C56.593,50.795,57.172,50.191,57.945,49.475z
		 M28.826,67.803c0.79,0.557,1.561,1.103,2.301,1.626c-0.21-1.065-0.425-2.154-0.668-3.39
		C29.406,65.879,29.279,66.953,28.826,67.803z M46.431,35.306c0.864,0.816,1.662,1.569,2.441,2.303
		c-0.218,0.423-0.398,0.774-0.579,1.125c0.402-0.083,0.804-0.238,0.812-0.413c0.032-0.661,0.115-1.814-0.144-1.909
		c-1.203-0.443-1.427-1.161-1.18-2.349C47.36,34.451,46.939,34.838,46.431,35.306z M33.891,52.058
		c1.444-0.362,1.991-2.443,3.862-2.15c-0.504-0.286-0.976-0.414-1.442-0.402C34.758,49.547,34.405,50.864,33.891,52.058z
		 M34.758,41.038c0.72,2.599,1.133,5.369,2.956,7.59C36.728,46.099,35.743,43.568,34.758,41.038z M68.518,45.683
		c-0.208-0.071-0.415-0.146-0.623-0.218c-0.32,0.935-0.641,1.87-0.961,2.803c0.158,0.057,0.316,0.114,0.475,0.17
		C67.779,47.519,68.147,46.6,68.518,45.683z M67.28,52.803c0.042,0.098,0.085,0.193,0.128,0.292c1.357-0.01,1.984-0.951,2.68-2.28
		C68.995,51.59,68.137,52.195,67.28,52.803z M55.854,35.122c-0.062-0.076-0.124-0.15-0.186-0.226
		c-0.205,0.261-0.423,0.512-0.609,0.784c-0.112,0.164-0.158,0.372-0.261,0.543c-0.157,0.263-0.498,0.533-0.47,0.764
		c0.042,0.328,0.348,0.622,0.581,0.994C55.269,36.891,55.562,36.006,55.854,35.122z M67.42,37.466
		c0.094,0.058,0.189,0.115,0.284,0.172c0.149-0.821,0.3-1.643,0.45-2.463c-0.096-0.007-0.189-0.014-0.284-0.02
		c-0.393,0.331-0.782,0.662-1.186,1.004C66.907,36.554,67.163,37.01,67.42,37.466z M19.027,52.809
		c1.437,0.767,1.04-1.283,1.992-1.249c-0.425-0.048-0.85-0.095-1.313-0.147C19.484,51.867,19.263,52.321,19.027,52.809z
		 M62.114,49.623c0.04,0.131,0.079,0.259,0.119,0.389c0.594,0.078,1.188,0.156,1.783,0.236c-0.055-0.446-0.242-0.812-0.448-0.823
		C63.088,49.4,62.601,49.547,62.114,49.623z M21.443,52.935c0.064,0.078,0.128,0.158,0.192,0.236
		c0.561-0.217,1.121-0.433,1.728-0.666c-0.147-0.268-0.317-0.575-0.574-1.042C22.266,52.033,21.855,52.484,21.443,52.935z
		 M40.131,44.141c1.093,0.785,2.337,1.446,2.31,3.074C42.796,45.375,41.619,44.64,40.131,44.141z M5.09,53.623
		c0.402-0.494,0.714-0.879,1.026-1.261c-0.041-0.119-0.081-0.234-0.121-0.351c-0.453,0.105-0.907,0.212-1.367,0.319
		C4.81,52.841,4.918,53.141,5.09,53.623z M63.154,36.311c-0.132,0.027-0.264,0.053-0.396,0.08c0.208,0.818,0.417,1.636,0.626,2.455
		c0.126-0.033,0.251-0.064,0.378-0.096C63.561,37.937,63.357,37.124,63.154,36.311z"/>
	<path fill-rule="evenodd" clip-rule="evenodd" fill="#FFFFFF" d="M86.747,47.313c1.04-1.119,2.083-2.234,3.111-3.361
		c0.174-0.19,0.246-0.487,0.438-0.651c1.538-1.324,1.126-3.123,1.183-4.802c0.034-1.048-0.083-2.109,0.035-3.146
		c0.12-1.048,0.974-1.471,2.036-1.288c0.557,0.096,1.143,0.017,1.864,0.017c0.19,0.386,0.486,0.978,0.986,1.988
		c0.154-0.459,0.271-0.81,0.367-1.093c1.874,0.993,0.87,2.441,0.854,3.634c-0.003,0.278-0.83,0.546-1.316,0.843
		c0.254,0.091,0.592,0.212,1.189,0.427c-1.081,0.49-1.962,0.889-2.842,1.287c0.042,0.132,0.084,0.265,0.128,0.399
		c1.262-0.613,2.53-1.159,3.976-0.639c-0.317,2.234-2.337,1.302-3.434,2.154c0.992-0.06,1.984-0.12,3.315-0.2
		c-0.421,0.468-0.726,0.81-0.915,1.021c0.241,0.256,0.529,0.563,0.925,0.984c0.22-0.507,0.415-0.955,0.63-1.447
		c0.697,1.26,0.205,2.366-0.264,3.441c-0.242,0.559-1.397,0.525-1.826,0.022c-0.565-0.664-1.124-1.167-2.102-0.549
		c-0.458,0.29-1.116,0.261-1.686,0.374c0,0.128-0.001,0.257-0.001,0.386c0.897,0,1.851-0.191,2.679,0.052
		c0.825,0.24,1.523,0.913,2.278,1.396c-0.336,0.487-0.336,0.487-3.162,0.394c0.941,0.27,1.884,0.542,2.825,0.813
		c0.021,0.154,0.043,0.309,0.063,0.462c-0.537,0.172-1.077,0.344-1.591,0.509c0.216,0.112,0.542,0.28,1.033,0.534
		c-0.76,0.239-1.36,0.429-2.064,0.651c0.26,0.41,0.431,0.685,0.642,1.021c-0.717,0.639-1.558,1.33-2.459,0.951
		c-0.756-0.316-1.277-1.187-1.985-1.756c0.237,1.25,1.329,1.916,2.303,2.964c-0.917-0.092-1.571-0.157-2.209-0.221
		c0.213,0.515,0.373,0.904,0.535,1.296c-0.455,0.14-0.908,0.279-1.604,0.495c1.974,1.026,1.288,2.413,0.873,3.978
		c-1.035-0.932-1.445-0.415-1.955,0.409c-0.438,0.709-1.18,1.232-1.855,1.907c0.243,0.098,0.447,0.18,0.806,0.324
		c-0.401,0.426-0.742,0.791-1.236,1.317c-0.082-1.906-0.915-0.903-1.454-0.727c-0.306-0.195-0.553-0.389-0.83-0.519
		c-0.28-0.133-0.59-0.198-0.935-0.309c-0.182,0.945-0.893,1.614-1.875,2.088c-1.868,0.903-3.437,2.189-4.859,3.712
		c-1.229,1.318-2.42,2.661-3.628,3.995c-0.658,0.727-1.723,1.087-2.629,1.628c-1.714-1.738-1.714-1.738-3.241-0.556
		c-0.07-0.193-0.137-0.376-0.202-0.556c-0.112-0.002-0.222-0.006-0.333-0.009c-0.046,0.69-0.092,1.38-0.145,2.167
		c-2.581,0.237-4.978,1.35-6.404,4.019c0.667,0.686-0.429,2.08-3.189,3.353c0-0.689,0.146-1.309-0.04-1.804
		c-0.191-0.508-0.706-0.895-1.079-1.333c-0.094,0.09-0.188,0.182-0.283,0.274c0.275,0.26,0.549,0.519,0.826,0.782
		c-0.291,0.084-0.571,0.166-0.826,0.24c0.357,0.629,0.702,1.236,1.106,1.943c-2.119,0.472-4.025,1.517-6.532,1.272
		c-2.604-0.252-4.642-1.602-6.996-2.227c-1.115-0.296-2.328-0.636-3.426-0.479c-1.545,0.223-2.262-0.65-3.229-1.663
		c0.843-0.531,1.609-1.012,2.376-1.492c-0.068-0.112-0.137-0.222-0.205-0.334c-0.8,0.488-1.601,0.975-2.485,1.514
		c-1.009-0.895-2.125-1.887-3.099-2.75c0.139-0.965,0.305-1.817,0.372-2.681c0.053-0.689,0.293-1.157,1.007-1.291
		c0.326-0.06,0.656-0.104,1.106-0.176c-0.658-1.318,0.383-1.338,1.192-1.712c0,0.294,0,0.494,0,0.751
		c1.63-0.471,2.78-2.183,4.605-1.684c0.054,0.124,0.107,0.25,0.162,0.374c-0.939,0.585-1.89,1.152-2.817,1.758
		c-1.261,0.824-2.414,1.754-2.937,3.254c-0.04,0.113-0.222,0.18-0.33,0.271c-0.16,0.297-0.326,0.589-0.461,0.829
		c0.446,0.154,0.852,0.286,1.251,0.437c0.529,0.196,1.04,0.513,1.584,0.586c0.738,0.101,1.501-0.016,2.251,0.022
		c0.837,0.044,1.671,0.154,2.208,0.207c-0.943,0.496-2.039,1.009-3.054,1.648c-0.239,0.153-0.229,0.733-0.273,1.124
		c-0.008,0.068,0.4,0.272,0.43,0.242c0.23-0.248,0.496-0.511,0.6-0.819c0.484-1.434,2.613-2.199,3.892-1.386
		c-0.521,0.067-1.058,0.138-1.596,0.207c-0.057,0.116-0.113,0.232-0.169,0.349c0.461,0.395,0.923,0.788,1.385,1.183
		c0.073-0.072,0.146-0.143,0.219-0.214c-0.018-0.229-0.037-0.454-0.054-0.675c0.492-0.084,0.908-0.156,1.423-0.244
		c-0.331-0.296-0.549-0.492-0.983-0.883c0.667,0.063,1.042,0.1,1.669,0.159c-0.505-0.247-0.788-0.388-1.052-0.518
		c0.438-0.543,0.856-1.059,1.275-1.576c-0.952,0.543-1.441,1.61-2.813,1.333c-1.35-0.27-2.741-0.529-4.104-0.483
		c-1.526,0.05-2.689-0.415-3.653-1.534c0.265-0.112,0.556-0.19,0.793-0.348c0.783-0.523,1.564-1.052,2.313-1.624
		c0.607-0.463,1.16-0.997,1.75-1.486c0.302-0.25,0.631-0.464,1.07-0.55c0.284-0.347,0.58-0.683,0.845-1.042
		c0.151-0.204,0.352-0.442,0.36-0.67c0.099-2.533,4.12-3.114,5.745-2.024c0.184,0.124,0.278,0.383,0.421,0.587
		c0.621-0.707,0.138-1.102-1.72-1.484c1.242-1.125,2.486-2.252,3.728-3.378c0.064,0.055,0.127,0.109,0.19,0.163
		c-0.486,0.859-0.973,1.718-1.459,2.577c0.704,0.588,2.098,0.004,2.877-1.448c-0.651,0.356-1.067,0.583-1.454,0.793
		c0.006-1.85,1.609-2.448,2.665-3.456c0.803-0.767,1.718-1.424,2.623-2.069c0.666-0.478,1.287-0.565,1.965,0.18
		c0.71,0.775,0.121,1.335-0.094,1.966c-0.117,0.34-0.363,0.635-0.548,0.953c-0.562,0.961-0.631,1.836,0.354,2.371
		c-0.939,0.757-1.882,1.513-2.826,2.271c0.091,0.106,0.181,0.211,0.272,0.317c0.334-0.365,0.638-0.77,1.014-1.084
		c0.318-0.265,0.721-0.426,1.176-0.442c-0.878,0.815-1.757,1.63-2.636,2.445c0.084,0.096,0.168,0.189,0.251,0.284
		c1.133-0.934,2.266-1.866,3.533-2.907c-0.191,1.712,0.112,2.098,1.448,2.191c0.28-0.86,0.559-1.716,0.907-2.782
		c0.422,0.451,0.63,0.673,0.744,0.795c1.026-1.95,2.123-3.836,3.987-5.105c0.121,0.052,0.242,0.105,0.362,0.157
		c-0.072,0.609-0.15,1.219-0.215,1.828c-0.049,0.443-0.21,0.928-0.087,1.32c0.212,0.669,0.042,1.061-0.509,1.43
		c-0.3,0.2-0.517,0.521-0.655,0.668c0.321,0.729,0.6,1.357,0.913,2.069c0.707-0.308,1.36-0.646,2.053-0.871
		c0.459-0.148,0.971-0.135,1.46-0.193c0.006,0.453-0.035,0.914,0.032,1.358c0.058,0.371,0.193,0.755,0.397,1.064
		c0.072,0.11,0.452,0.018,0.747,0.018c-0.018,0.097-0.169,0.426-0.075,0.529c0.307,0.338,0.705,0.593,1.066,0.881
		c0.133-0.342,0.395-0.69,0.374-1.021c-0.068-1.16,0.661-1.756,1.639-2.309c-0.788-0.469-1.143-1.521-2.223-0.928
		c-0.249-0.473-0.721-0.961-0.689-1.416c0.035-0.535,0.383-1.215,0.814-1.524c0.706-0.509,1.589-0.769,2.323-1.288
		c-0.55,0-1.102,0.038-1.647-0.008c-1.04-0.086-1.609-1.001-1.259-1.998c0.055-0.156,0.188-0.342,0.329-0.398
		c1.53-0.61,3.117,0.398,3.292,2.032c0.036,0.334,0.227,0.691,0.444,0.955c0.175,0.212,0.5,0.3,0.758,0.444
		c0.16-0.328,0.36-0.643,0.474-0.985c0.413-1.261,0.732-2.557,1.247-3.773c0.106-0.25,0.896-0.29,1.369-0.282
		c0.296,0.006,0.587,0.284,1.092,0.552c-0.375-0.723-0.651-1.257-1.036-2c1.849-0.438,3.567-0.847,5.293-1.255
		c-0.4-1.04-0.892-1.915-2.492-1.556c1.169-0.805,1.022-1.628,0.554-2.491l-0.033,0.044c0.244-0.222,0.535-0.408,0.723-0.669
		c0.654-0.91,1.247-1.865,1.914-2.767c0.527-0.711,1.134-1.365,1.704-2.044L86.747,47.313z M55.515,66.322
		c-0.764,0.647-1.526,1.294-2.292,1.941c-0.04-0.046-0.082-0.094-0.122-0.143c0.174-0.267,0.351-0.53,0.524-0.797
		c-0.088-0.062-0.176-0.125-0.264-0.188c-0.257,0.351-0.797,0.787-0.721,1.034c0.398,1.295-0.883,1.608-1.298,2.405
		c-0.052,0.103-0.468,0.015-1.033,0.015c0.518-0.492,0.772-0.735,1.013-0.966c-0.779-0.281-1.526-0.554-2.273-0.824
		c-0.042,0.078-0.083,0.155-0.125,0.234c0.443,0.269,0.886,0.534,1.336,0.807c-0.104,0.419-0.199,0.801-0.304,1.226
		c-0.24-0.138-0.395-0.229-0.695-0.401c0.122,0.523,0.205,0.875,0.277,1.221c-0.933-0.651-1.793,0.096-2.687,0.168
		c-0.091,0.008-0.251,0.488-0.194,0.698c0.096,0.356,0.34,0.671,0.521,1.005c-0.187-1.59,0.986-1.634,2.021-1.827
		c0.11-0.021,0.222-0.034,0.334-0.051c0.003,0.248,0.114,0.599-0.009,0.728c-0.478,0.508-0.388,0.877,0.484,1.261
		c0.078-0.745,0.156-1.49,0.204-1.944c1.129-1.082,2.209-2.052,3.206-3.102c0.747-0.789,1.386-1.68,2.074-2.522
		c0.796-0.206,1.579-0.424,1.73-1.363c-0.093-0.088-0.183-0.178-0.275-0.266C56.471,65.22,55.993,65.771,55.515,66.322z
		 M46.567,81.363c1.052-0.171,1.801-0.291,2.555-0.41c-0.079-0.438-0.146-0.808-0.208-1.159c0.56,0.078,0.984,0.136,1.41,0.196
		c0.014-0.101,0.029-0.2,0.044-0.299c-0.692-0.157-1.384-0.314-2.107-0.479c0.659-1.375,1.822,0.172,2.757-0.619
		c-0.46-0.222-0.803-0.386-1.142-0.55c0.177-0.242,0.353-0.479,0.523-0.719c0.188-0.267,0.52-0.543,0.508-0.801
		c-0.01-0.196-0.434-0.438-0.718-0.547c-1.32-0.505-3.016,0.513-3.411,1.967c-0.129,0.476-0.415,0.91-0.72,1.558
		C46.248,79.96,47.86,80.146,46.567,81.363z M76.215,64.537c-0.454,0.471-0.818,0.847-1.182,1.224
		c0.432,0.328,0.863,0.657,1.282,0.977c0.234-0.507,0.42-0.908,0.643-1.392C76.768,65.138,76.544,64.896,76.215,64.537z
		 M83.977,54.67c0.072,0.12,0.145,0.238,0.216,0.357c1.006-0.323,2.086-0.529,2.619-1.574c-0.071-0.113-0.143-0.23-0.215-0.345
		C85.724,53.63,84.85,54.15,83.977,54.67z"/>
	<path fill-rule="evenodd" clip-rule="evenodd" fill="#FFFFFF" d="M71.464,29.387c0.146-0.792,0.293-1.584,0.437-2.37
		c-0.318-0.497-0.593-1.035-0.965-1.495c-0.372-0.458-0.842-0.838-1.351-1.332c2.229-0.827,2.597-1.83,1.737-3.9
		c-0.226-0.543-0.264-1.162-0.412-1.738s-0.329-1.144-0.494-1.708c0.25-0.227,0.513-0.466,0.776-0.706
		c0.596,0.639,1.626,0.731,2.064,0.085c0.424-0.626,0.766-0.731,1.28-0.16c0.085,0.094,0.249,0.168,0.375,0.167
		c0.952-0.011,0.949-0.018,0.817,0.844c-0.029,0.187-0.041,0.375-0.045,0.563c-0.002,0.07,0.038,0.141,0.081,0.291
		c0.667,0.176,1.373,0.363,2.319,0.615c-0.108,0.743-0.225,1.53-0.358,2.443c0.09,0.152,0.308,0.516,0.525,0.88
		c0.02-0.059,0.037-0.118,0.056-0.176c0.934,0.567,1.868,1.136,2.915,1.772c0-0.702,0-1.467,0-2.358
		c1.578,0.164,2.285-0.813,2.837-2.05c0.319-0.714,0.818-1.045,1.723-0.765c0.529,0.166,1.193-0.103,1.969-0.198
		c-1.36,0.909-2.594,1.733-3.867,2.583c0.55,0.562,1.514,0.993,0.691,1.911c-0.509,0.568-1.153,1.015-1.921,1.674
		c0.509,0.124,0.833,0.203,1.236,0.302c-0.028,0.27-0.063,0.578-0.094,0.859c0.697,0.14,1.372,0.276,1.872,0.376
		c0.556-0.265,1.317-0.754,1.407-0.653c0.439,0.503,0.983,1.172,0.962,1.763c-0.032,0.835-0.473,1.68-0.846,2.468
		c-0.258,0.547-0.842,0.896-0.495,1.7c0.122,0.287-0.334,0.872-0.605,1.267c-0.359,0.521-0.843,0.959-1.188,1.489
		c-0.624,0.962-1.342,1.741-2.441,2.231c-1.488,0.664-1.445,2.119-1.349,3.56c0.092-0.188,0.285-0.39,0.259-0.558
		c-0.282-1.765,0.984-2.408,2.188-3.125c0.335-0.199,0.706-0.452,0.891-0.776c1.266-2.25,3.101-3.738,5.617-4.376
		c0.242-0.061,0.463-0.215,0.755-0.356c0.378,0.756-0.915,1.84,0.469,2.306c-0.411,0.728-0.784,1.388-1.156,2.049
		c0.064,0.041,0.131,0.082,0.196,0.124c0.298-0.404,0.571-0.826,0.901-1.2c0.118-0.133,0.369-0.147,0.56-0.215
		c0.018,0.191,0.119,0.501,0.042,0.556c-1.396,0.982-0.81,2.448-0.897,3.721c-0.071,1.041,0.301,2.182-0.005,3.122
		c-0.38,1.163-1.231,2.181-1.928,3.229c-0.723,1.083-1.504,2.129-2.259,3.191l0.038-0.042c-2.063,1.339-3.567,3.119-4.341,5.479
		l0.033-0.044c-0.063,0.513-0.125,1.027-0.2,1.63c-0.211-0.184-0.386-0.335-0.57-0.494c-0.653,0.353-0.654,1.752-2.047,1.022
		c0-0.963,0.001-2.032-0.001-3.103c0-0.15,0.047-0.352-0.03-0.443c-0.903-1.064,0.021-1.758,0.385-2.673
		c0.566-1.427,1.506-2.338,2.745-3.118c1.006-0.638,1.464-1.683,1.644-2.853c0.162-1.07,0.793-1.821,1.819-2.078
		c1.988-0.495,3.312-1.524,3.454-3.711c0.016-0.237,0.182-0.464,0.09-0.809c-0.161,0.313-0.458,0.623-0.462,0.937
		c-0.021,1.761-1.137,2.572-2.605,2.975c-1.712,0.47-2.565,1.469-2.976,3.234c-0.213,0.917-1.188,1.771-2.011,2.401
		c-0.671,0.512-1.319,0.867-1.53,1.784c-0.118,0.514-0.512,0.992-0.858,1.425c-1.338,1.666-0.807,3.627-0.875,5.883
		c-0.651-0.728-1.089-1.218-1.528-1.708c-1.33-0.548-1.826-1.273-1.637-2.795c0.014-0.112,0.01-0.307,0.056-0.32
		c1.25-0.361,0.765-1.689,1.32-2.469c0.25-0.353-0.14-1.27-0.413-1.85c-0.19-0.409-0.671-0.68-1.023-1.011l-0.011,0.029
		c1.703-1.84,2.534-2.978,0.458-4.705c-0.185-0.152-0.321-0.51-0.288-0.744c0.2-1.394,0.462-2.785-0.585-3.981
		c-0.338-0.385-0.769-0.695-1.072-1.103c-0.232-0.312-0.411-0.71-0.465-1.091c-0.049-0.351,0.1-0.729,0.161-1.095l-0.021,0.036
		c0.209-0.538,0.42-1.076,0.53-1.361c-0.718-0.334-1.16-0.539-1.6-0.746C72.04,29.668,71.752,29.526,71.464,29.387z M87.847,32.878
		c-0.197-0.052-0.393-0.103-0.59-0.155c-0.254,1.144-0.51,2.287-0.765,3.43c0.13,0.033,0.259,0.066,0.389,0.099
		C87.203,35.128,87.523,34.002,87.847,32.878z"/>
	<path fill-rule="evenodd" clip-rule="evenodd" fill="#FFFFFF" d="M40.658,37.542c-0.151-0.098-0.302-0.195-0.45-0.291
		c-0.701-0.675-1.424-1.336-2.096-2.045c-0.122-0.129-0.048-0.458-0.04-0.693c0.018-0.477,0.151-0.972,0.064-1.427
		c-0.298-1.55-0.691-3.081-1.006-4.627c-0.133-0.656-0.162-1.334-0.228-1.913c0.937-0.36,1.699-0.652,2.687-1.033
		c0.687,1.464,1.359,2.919,2.057,4.362c0.098,0.202,0.287,0.426,0.485,0.501c0.84,0.317,1.177,0.944,1.352,1.781
		c0.125,0.598-0.112,1.433,0.815,1.653c-0.038,1.965,1.96,3.104,2.03,5.088c0.024,0.662,0.727,1.337,1.207,1.938
		c0.731,0.912,1.209,1.857,1.059,3.083c-0.043,0.356,0.234,0.753,0.364,1.131L48.931,45c-0.11,0.989-0.171,2.006-1.579,1.974
		c-0.15-0.002-0.336,0.167-0.452,0.303c-0.739,0.859-1.231,0.45-1.776-0.257c-0.575-0.743-0.319-2.062-1.6-2.317
		c-0.07-0.015-0.136-0.178-0.16-0.283c-0.314-1.419-0.509-2.877-0.965-4.25C42.072,39.183,42.057,37.865,40.658,37.542z"/>
	<path fill-rule="evenodd" clip-rule="evenodd" fill="#FFFFFF" d="M11.288,26.201c0.564,1.251,0.843,2.534,0.382,3.902
		c0.462,0.236,0.9,0.46,1.38,0.707c-0.947,1.661-2.394,1.916-4,1.76c-1.311-0.128-2.313-1.048-2.591-2.393
		c-0.061-0.295-0.042-0.814,0.119-0.902c0.27-0.147,0.818-0.177,1.014,0.001c0.774,0.708,1.98,0.691,2.589,1.683
		c0.495,0.808,1.245,0.598,2.126,0.038c-0.399-0.245-0.729-0.542-1.116-0.67c-1.438-0.474-2.615-1.302-3.552-2.478
		c-0.208-0.263-0.435-0.544-0.521-0.855c-0.067-0.241-0.021-0.646,0.14-0.785c0.188-0.161,0.61-0.232,0.837-0.131
		c0.902,0.406,1.769,0.893,2.807,1.271c-0.374-0.384-0.734-0.782-1.125-1.148c-0.392-0.368-0.813-0.703-1.222-1.052
		c0.061-0.088,0.122-0.177,0.182-0.265c0.525,0.3,1.049,0.602,1.573,0.902C10.636,25.925,10.961,26.063,11.288,26.201z"/>
	<path fill-rule="evenodd" clip-rule="evenodd" fill="#FFFFFF" d="M25.936,29.287c-0.543-0.698-1.101-1.385-1.617-2.101
		c-0.129-0.179-0.125-0.455-0.194-0.73c-0.487,0.714-0.928,1.361-1.34,1.967c-0.252-0.929-0.533-1.96-0.872-3.205
		c1.314,0.813,1.633-0.197,2.2-0.943c-0.371-0.096-0.705-0.184-1.04-0.27c-0.02-0.07-0.039-0.14-0.058-0.209
		c0.341-0.068,0.806-0.309,0.999-0.169c0.515,0.367,1.613,0.229,1.349,1.388c-0.08,0.348-0.08,0.74-0.008,1.089
		c0.051,0.244,0.288,0.448,0.706,0.594c-0.08,0.384-0.159,0.768-0.238,1.151c0.097,0.031,0.193,0.061,0.289,0.092
		c0.162-0.533,0.325-1.068,0.607-1.995c0.198,0.471,0.454,0.78,0.384,0.972c-0.249,0.688,0.077,0.773,0.632,0.792
		c0.41,0.015,0.816,0.119,1.457,0.221c-1.315,0.529-2.299,0.926-3.281,1.326C25.915,29.261,25.936,29.287,25.936,29.287z"/>
	<path fill-rule="evenodd" clip-rule="evenodd" fill="#FFFFFF" d="M11.288,26.201c-0.327-0.138-0.652-0.276-0.978-0.415
		c0.268-0.184,0.536-0.37,0.845-0.583c-0.407-0.546-0.811-1.09-1.45-1.949c0.8,0.103,1.396,0.049,1.859,0.271
		c0.564,0.271,1.181,0.685,1.463,1.206c0.2,0.369-0.117,1.018-0.214,1.617c0.369-0.258,0.78-0.546,1.266-0.885
		c0.63,1.17-0.258,1.812-0.711,2.564c0.103,0.08,0.206,0.158,0.309,0.237c0.316-0.465,0.632-0.928,1.005-1.478
		c-0.024,0.321-0.045,0.588-0.074,0.964c0.253-0.276,0.453-0.495,0.654-0.713c0.053,0.035,0.105,0.069,0.158,0.104
		c-0.493,0.817-0.958,1.652-1.507,2.428c-0.084,0.119-0.725,0.073-0.814-0.074C12.453,28.422,11.882,27.305,11.288,26.201z"/>
	<path fill-rule="evenodd" clip-rule="evenodd" fill="#FFFFFF" d="M6.917,35.16c-2.202-0.379-3.169-1.834-2.407-3.671
		c1.242,0.745,2.515,1.437,3.705,2.25c0.739,0.505,0.488,1.352,0.402,2.096c-0.379-0.077-0.759-0.153-1.139-0.23
		C7.291,35.456,7.104,35.308,6.917,35.16z"/>
	<path fill-rule="evenodd" clip-rule="evenodd" fill="#FFFFFF" d="M18.261,17.471c0.401,0.542,0.656,0.884,1.029,1.387
		c0.119-0.484,0.19-0.774,0.263-1.071c0.069,0.046,0.151,0.072,0.187,0.128c0.379,0.602,0.839,1.172,1.101,1.822
		c0.269,0.666,0.342,1.411,0.56,2.385c0.562,0.094,1.449,0.243,2.336,0.392c-0.01,0.125-0.019,0.25-0.029,0.376
		c-0.501,0.302-1.002,0.605-1.503,0.909c-0.055-0.067-0.11-0.134-0.164-0.201c0.11-0.201,0.22-0.402,0.363-0.661
		c-0.138-0.053-0.263-0.112-0.395-0.152c-0.78-0.231-1.588-0.203-1.67-1.486c-0.047-0.735-0.963-1.419-1.502-2.116
		C18.49,18.735,17.881,18.393,18.261,17.471z"/>
	<path fill-rule="evenodd" clip-rule="evenodd" fill="#FFFFFF" d="M65.014,61.89c-1.219-1.354-0.888-2.824-0.909-4.437
		c0.854,0.487,1.58,0.897,2.543,1.444c-0.897,0.323-1.501,0.543-2.189,0.791c0.215,0.401,0.366,0.685,0.522,0.977
		c0.297-0.24,0.549-0.447,0.8-0.651c0.089,0.114,0.277,0.287,0.251,0.331C65.731,60.841,65.399,61.318,65.014,61.89z"/>
	<path fill-rule="evenodd" clip-rule="evenodd" fill="#FFFFFF" d="M16.524,19.275c-0.637,0.625-1.139,1.469-1.833,1.679
		c-0.496,0.15-1.249-0.553-1.709-1.062c0.41-0.054,0.821-0.109,1.231-0.164c-0.159-0.509-0.317-1.019-0.476-1.528
		c0.031-0.056,0.063-0.113,0.094-0.169c0.361,0.415,0.661,0.925,1.106,1.21C15.222,19.425,15.72,19.275,16.524,19.275z"/>
	<path fill-rule="evenodd" clip-rule="evenodd" fill="#FFFFFF" d="M36.456,55.319c0.083-0.166,0.124-0.421,0.256-0.485
		c0.874-0.43,1.063-1.185,1.122-2.062c0.016-0.252,0.286-0.487,0.439-0.729c0.217,0.3,0.539,0.572,0.625,0.906
		c0.094,0.365,0.126,0.959-0.087,1.149c-0.635,0.57-1.404,0.989-2.121,1.47C36.611,55.485,36.533,55.401,36.456,55.319z"/>
	<path fill-rule="evenodd" clip-rule="evenodd" fill="#FFFFFF" d="M20.154,24.1c-0.104,0.643-0.172,1.076-0.242,1.505
		c-1.901,0.89-2.854-1.014-4.355-1.299c0.037-0.107,0.074-0.213,0.11-0.319c0.504,0.231,1.008,0.461,1.458,0.668
		c0.281-0.345,0.531-0.649,0.779-0.953c0.279,0.519,0.559,1.039,0.883,1.643C19.108,25.052,19.546,24.653,20.154,24.1z"/>
	<path fill-rule="evenodd" clip-rule="evenodd" fill="#FFFFFF" d="M6.917,35.16c0.187,0.148,0.374,0.296,0.562,0.444
		c-0.074,0.542-0.149,1.082-0.223,1.624c-0.042,0.019-0.083,0.033-0.119,0.041c-0.54-0.119-1.088-0.237-1.635-0.354
		c-0.001-0.089-0.002-0.179-0.003-0.268c0.228-0.1,0.457-0.2,0.784-0.343c-0.183-0.22-0.352-0.425-0.477-0.575
		C6.192,35.531,6.554,35.345,6.917,35.16z"/>
	<path fill-rule="evenodd" clip-rule="evenodd" fill="#FFFFFF" d="M15.977,20.637c0.889-1.376,0.889-1.376-0.434-3.277
		c0.793,0.588,1.585,1.177,2.427,1.803c-0.681,0.64-1.238,1.165-1.795,1.688C16.109,20.779,16.042,20.708,15.977,20.637z"/>
	<path fill-rule="evenodd" clip-rule="evenodd" fill="#FFFFFF" d="M57.556,58.978c0.623-0.334,1.073-0.577,1.523-0.821
		c0.098,0.511,0.194,1.021,0.336,1.766C58.792,59.606,58.271,59.341,57.556,58.978z"/>
	<path fill-rule="evenodd" clip-rule="evenodd" fill="#FFFFFF" d="M59.743,51.979c0.27-0.478,0.536-0.955,0.804-1.434
		c0.092,0.042,0.185,0.085,0.276,0.127c-0.094,0.662-0.189,1.324-0.286,1.991c-0.271-0.235-0.543-0.471-0.818-0.709
		C59.716,51.951,59.743,51.979,59.743,51.979z"/>
	<path fill-rule="evenodd" clip-rule="evenodd" fill="#FFFFFF" d="M17.812,22.847c-0.654-0.059-1.309-0.117-2.109-0.189
		c0.01,0.021-0.081-0.174-0.324-0.694c1.003,0.235,1.751,0.41,2.5,0.585C17.856,22.648,17.833,22.748,17.812,22.847z"/>
	<path fill-rule="evenodd" clip-rule="evenodd" fill="#FFFFFF" d="M18.758,19.785c-0.094,0.479-0.056,0.871-0.233,1.067
		c-0.38,0.418-0.838,0.928-1.522,0.253C17.511,20.724,18.003,20.353,18.758,19.785z"/>
	<path fill-rule="evenodd" clip-rule="evenodd" fill="#FFFFFF" d="M37.323,66.722c0.67-0.999,0.828-2.391,2.317-2.755
		c-0.796,0.917-1.592,1.834-2.387,2.749C37.252,66.716,37.323,66.722,37.323,66.722z"/>
	<path fill-rule="evenodd" clip-rule="evenodd" fill="#FFFFFF" d="M47.988,54.083c-1.211-1.013-1.986-2.258-2.446-3.667
		c-0.2-0.608,0.86-1.796,1.721-2.042c0.071,1.068,0.429,1.884,1.614,2.233c0.563,0.167,0.744,1.061,0.104,1.356
		C47.99,52.427,47.824,53.068,47.988,54.083z"/>
	<path fill-rule="evenodd" clip-rule="evenodd" fill="#FFFFFF" d="M51.853,48.359c-0.275,0.482-0.478,1.031-0.846,1.433
		c-0.792,0.864-1.179,0.01-1.511-0.445c-0.221,0.27-0.406,0.499-0.591,0.725c-0.253-0.21-1.261,0.118-0.572-0.803
		c0.035-0.046-0.405-0.374-0.512-0.621c-0.121-0.277-0.171-0.615-0.129-0.913c0.015-0.111,0.503-0.294,0.548-0.243
		c0.195,0.22,0.317,0.509,0.442,0.782c0.07,0.156,0.093,0.33,0.293,0.475c0.026-0.349,0.051-0.694,0.096-1.289
		c0.602,0.344,1.16,0.52,1.498,0.893c0.492,0.539,0.861,0.46,1.311,0.038C51.877,48.388,51.853,48.359,51.853,48.359z"/>
</g>
</svg>
