<?xml version="1.0" encoding="utf-8"?>
<!-- Generator: Adobe Illustrator 16.0.0, SVG Export Plug-In . SVG Version: 6.00 Build 0)  -->
<!DOCTYPE svg PUBLIC "-//W3C//DTD SVG 1.1//EN" "http://www.w3.org/Graphics/SVG/1.1/DTD/svg11.dtd">
<svg version="1.1" id="Layer_1" xmlns="http://www.w3.org/2000/svg" xmlns:xlink="http://www.w3.org/1999/xlink" x="0px" y="0px"
	 width="100px" height="100px" viewBox="0 0 100 100" enable-background="new 0 0 100 100" xml:space="preserve">
<g>
	<path fill-rule="evenodd" clip-rule="evenodd" fill="#FFFFFF" d="M3.595,30.73c-0.064-5.063,1.084-9.859,3.27-14.369
		c1.208-2.493,2.684-4.9,4.759-6.806c2.734-2.511,5.427-5.096,8.373-7.341c3.024-2.304,6.054-1.701,8.841,0.791
		c3.104,2.774,5.178,6.331,7.284,9.839c1.224,2.038,2.369,4.156,3.26,6.355c1.959,4.836,1.143,9.105-3.28,12.518
		c-2.026,1.563-4.083,3.104-5.966,4.831c-1.938,1.778-2.743,4.012-2.299,6.748c0.722,4.447,3.031,8.085,5.654,11.543
		c2.167,2.858,4.556,5.549,6.878,8.287c3.204,3.778,6.853,7.077,11.241,9.398c2.938,1.554,6.06,2.104,9.041-0.11
		c0.359-0.268,0.679-0.591,1.015-0.891c2.333-2.075,4.55-4.302,7.027-6.188c2.897-2.205,6.192-2.069,9.426-0.691
		c3.185,1.356,5.85,3.512,8.409,5.8c1.68,1.501,3.478,2.886,5.031,4.506c1.669,1.739,3.294,3.556,3.882,6.049
		c0.509,2.16,0.021,4.131-1.471,5.571c-2.795,2.698-5.672,5.357-8.788,7.663c-3.782,2.799-8.132,4.467-12.874,4.921
		c-1.63,0.155-3.269,0.397-4.897,0.364c-4.504-0.094-8.848-1.052-13.06-2.657c-4.284-1.633-8.275-3.81-11.97-6.501
		c-2.427-1.768-4.796-3.629-7.07-5.588c-2.252-1.938-4.477-3.939-6.493-6.116c-3.055-3.299-6.008-6.701-8.837-10.195
		c-2.244-2.772-4.34-5.681-6.317-8.65c-3.617-5.435-6.501-11.259-8.317-17.54c-0.738-2.554-1.031-5.242-1.452-7.881
		C3.702,33.185,3.689,31.951,3.595,30.73z"/>
</g>
</svg>
