<?xml version="1.0" encoding="utf-8"?>
<!-- Generator: Adobe Illustrator 16.0.0, SVG Export Plug-In . SVG Version: 6.00 Build 0)  -->
<!DOCTYPE svg PUBLIC "-//W3C//DTD SVG 1.1//EN" "http://www.w3.org/Graphics/SVG/1.1/DTD/svg11.dtd">
<svg version="1.1" id="Layer_1" xmlns="http://www.w3.org/2000/svg" xmlns:xlink="http://www.w3.org/1999/xlink" x="0px" y="0px"
	 width="100px" height="100px" viewBox="0 0 100 100" enable-background="new 0 0 100 100" xml:space="preserve">
<g>
	<path fill-rule="evenodd" clip-rule="evenodd" fill="#FFFFFF" d="M49.27,99.171c-13.388,0-26.797,0.041-40.185,0
		c-6.772-0.042-8.164-1.994-8.714-8.663c-0.696-8.268,2.078-13.647,9.96-17.054c7.271-3.137,14.105-7.364,21.054-11.27
		c2.274-1.288,4.154-1.496,6.657-0.332c7.79,3.624,15.673,3.313,23.619,0.072c1.641-0.665,4.144-0.645,5.702,0.146
		c8.454,4.269,16.743,8.849,25.031,13.378c6.024,3.323,9.307,14.936,5.297,20.523c-1.268,1.786-4.508,2.991-6.876,3.032
		C76.98,99.295,63.125,99.171,49.27,99.171L49.27,99.171z"/>
	<path fill-rule="evenodd" clip-rule="evenodd" fill="#FFFFFF" d="M75.423,30.028c-0.249,7.936-2.866,14.832-8.111,20.638
		c-9.732,10.781-25.613,10.698-35.397-0.063C21.476,39.105,21.58,19.849,32.309,8.611c6.284-6.585,14.115-9.296,22.985-7.011
		c9.69,2.503,15.476,9.451,18.468,18.716C74.737,23.412,74.903,26.788,75.423,30.028z"/>
</g>
</svg>
