<?xml version="1.0" encoding="utf-8"?>
<!-- Generator: Adobe Illustrator 16.0.0, SVG Export Plug-In . SVG Version: 6.00 Build 0)  -->
<!DOCTYPE svg PUBLIC "-//W3C//DTD SVG 1.1//EN" "http://www.w3.org/Graphics/SVG/1.1/DTD/svg11.dtd">
<svg version="1.1" id="Layer_1" xmlns="http://www.w3.org/2000/svg" xmlns:xlink="http://www.w3.org/1999/xlink" x="0px" y="0px"
	 width="100px" height="100px" viewBox="0 0 100 100" enable-background="new 0 0 100 100" xml:space="preserve">
<g>
	<path fill-rule="evenodd" clip-rule="evenodd" fill="#FFFFFF" d="M99.191,88.807c0,1.404,0,2.829,0,4.234
		c-2.952,7.56-10.78,7.725-15.594,2.396c-6.01-6.609-12.609-12.723-18.889-19.085c-0.96-0.97-1.559-0.991-2.716-0.31
		c-8.891,5.267-18.486,6.961-28.585,4.937C14.788,77.24,2.116,61.729,0.959,44.224C-0.465,22.423,14.302,6.612,30.505,2.316
		c2.014-0.537,4.059-0.96,6.104-1.436c3.067,0,6.145,0,9.212,0c0.805,0.165,1.611,0.351,2.416,0.506
		c28.028,5.081,42.28,36.052,27.821,60.56c-0.784,1.321-0.495,1.931,0.455,2.86c6.01,5.927,12.021,11.876,17.886,17.907
		C96.196,84.572,97.602,86.762,99.191,88.807z M14.995,41.312c0.02,14.52,11.876,26.396,26.344,26.386
		c14.438-0.021,26.387-11.979,26.387-26.428c0-14.458-11.919-26.313-26.417-26.292C26.695,14.998,14.995,26.719,14.995,41.312z"/>
</g>
</svg>
