<?xml version="1.0" encoding="utf-8"?>
<!-- Generator: Adobe Illustrator 16.0.0, SVG Export Plug-In . SVG Version: 6.00 Build 0)  -->
<!DOCTYPE svg PUBLIC "-//W3C//DTD SVG 1.1//EN" "http://www.w3.org/Graphics/SVG/1.1/DTD/svg11.dtd">
<svg version="1.1" id="Layer_1" xmlns="http://www.w3.org/2000/svg" xmlns:xlink="http://www.w3.org/1999/xlink" x="0px" y="0px"
	 width="100px" height="100px" viewBox="0 0 100 100" enable-background="new 0 0 100 100" xml:space="preserve">
<g>
	<path fill-rule="evenodd" clip-rule="evenodd" fill="#F0B52A" d="M2.301,98.693c-1.686-0.133-2.141-1.092-1.427-2.648
		c1.998-4.356,3.962-8.729,6.075-13.029c3.667-7.463,7.375-14.904,11.176-22.299c3.835-7.463,7.878-14.819,11.686-22.296
		c2.642-5.188,4.979-10.532,7.564-15.75c3.271-6.604,6.853-13.049,9.79-19.825c0.996-2.295,4.346-2.039,5.709,0.497
		c2.518,4.669,4.742,9.494,7.145,14.227c2.688,5.297,5.465,10.55,8.15,15.847c2.398,4.729,4.711,9.501,7.098,14.238
		c3.016,5.991,5.803,12.087,9.088,17.958c3.688,6.592,6.822,13.492,10.205,20.256c1.561,3.121,3.322,6.136,4.287,9.545
		c0.283,1,1.102,1.823,0.178,2.828c-0.818,0.892-1.732,0.355-2.543,0.024c-9.732-3.982-19.896-6.741-29.666-10.672
		c-4.781-1.923-9.783-3.63-14.854-4.913c-3.591-0.91-6.717,0.888-9.891,1.864c-5.829,1.792-11.557,3.975-17.269,6.083
		c-6.814,2.518-13.849,4.453-20.494,7.435C3.714,98.329,3.059,98.458,2.301,98.693z"/>
</g>
</svg>
